PathFileType	4	(X/Y/Z)	C:\Users\Basilio\Documents\Thesis Gigler\squatting_fais\c3dfiles\039\SLS_pre_front5\markers_experimental.trc
DataRate	CameraRate	NumFrames	NumMarkers	Units	OrigDataRate	OrigDataStartFrame	OrigNumFrames
200.000000	200.000000	4	63	mm	200.000000	0	1992
Frame#	Time	FHD			LBHD			RBHD			C7			T10			LSHO			LUUPA			LMUPA			LDUPA			LLEP			LMEP			LUL			LRFIN			RSHO			RUPA1			RMUPA			RDUPA			RLEP			RMEP			RRAD			RUL			RUFIN			LASI			RASI			USACR			LSACR			RSACR			LTHI1			LTHI2			LTHI3			LTHI4			LLFC			LMFC			LTIB1			LTIB2			LTIB3			LTIB4			LLMAL			LMMAL			LHEE			LMT1			LMT2			LMT5			RTHI			RTHI2			RTHI3			RTHI4			RLFC			RMFC			RTIB1			RTIB2			RTIB3			RTIB4			RLMAL			RMMAL			RHEE			RMT1			RMT2			RMT5			LRAD			CLAV			*61			*62			
		X1	Y1	Z1	X2	Y2	Z2	X3	Y3	Z3	X4	Y4	Z4	X5	Y5	Z5	X6	Y6	Z6	X7	Y7	Z7	X8	Y8	Z8	X9	Y9	Z9	X10	Y10	Z10	X11	Y11	Z11	X12	Y12	Z12	X13	Y13	Z13	X14	Y14	Z14	X15	Y15	Z15	X16	Y16	Z16	X17	Y17	Z17	X18	Y18	Z18	X19	Y19	Z19	X20	Y20	Z20	X21	Y21	Z21	X22	Y22	Z22	X23	Y23	Z23	X24	Y24	Z24	X25	Y25	Z25	X26	Y26	Z26	X27	Y27	Z27	X28	Y28	Z28	X29	Y29	Z29	X30	Y30	Z30	X31	Y31	Z31	X32	Y32	Z32	X33	Y33	Z33	X34	Y34	Z34	X35	Y35	Z35	X36	Y36	Z36	X37	Y37	Z37	X38	Y38	Z38	X39	Y39	Z39	X40	Y40	Z40	X41	Y41	Z41	X42	Y42	Z42	X43	Y43	Z43	X44	Y44	Z44	X45	Y45	Z45	X46	Y46	Z46	X47	Y47	Z47	X48	Y48	Z48	X49	Y49	Z49	X50	Y50	Z50	X51	Y51	Z51	X52	Y52	Z52	X53	Y53	Z53	X54	Y54	Z54	X55	Y55	Z55	X56	Y56	Z56	X57	Y57	Z57	X58	Y58	Z58	X59	Y59	Z59	X60	Y60	Z60	X61	Y61	Z61	X62	Y62	Z62	X63	Y63	Z63	

1	0	-271.8924255371094	1788.0712890625	-702.6388549804689	-430.1400756835939	1773.871337890625	-826.1856689453127	-403.9690551757814	1769.084838867188	-686.6882324218751	-471.700408935547	1597.5029296875	-782.306823730469	-468.8326110839845	1288.5126953125	-811.6031494140627	-394.2891540527345	1619.616088867188	-934.9919433593752	-218.9311065673829	1588.391967773438	-1033.97998046875	-199.2373199462891	1619.41064453125	-999.956237792969	-150.0889129638672	1598.170166015625	-1027.31640625	-84.54302215576173	1607.5791015625	-1018.178588867188	-80.68103790283205	1535.603271484375	-985.8809204101565	191.5896606445313	1646.427978515625	-992.838073730469	270.2717285156251	1675.322509765625	-908.8487548828127	-371.3880920410157	1608.626831054688	-629.8934326171876	-199.164779663086	1551.562866210938	-545.4003906250001	-175.9914855957032	1586.688842773438	-573.1383056640626	-130.9681091308594	1550.726684570313	-551.9696655273439	-70.31367492675783	1568.392822265625	-566.6055297851564	-64.97306060791017	1500.595703125	-606.8265991210939	210.6615142822266	1623.6533203125	-662.8193359375001	214.7944946289063	1612.4951171875	-587.8334350585939	297.3535461425782	1658.049194335938	-657.8269042968751	-291.4295043945313	1115.312255859375	-938.071472167969	-283.1629333496094	1098.661743164063	-711.6209716796876	-472.1119995117189	1158.9208984375	-815.0233154296877	-474.215057373047	1128.394165039063	-845.3732910156252	-471.9532775878907	1124.68896484375	-786.0701904296877	-343.5413818359376	832.9924316406252	-1019.405029296875	-306.5085144042969	757.2088623046876	-1024.484497070313	-258.8747253417969	762.5006103515626	-1017.375061035156	-330.1942138671876	702.6109008789064	-1015.303833007813	-326.9093017578126	580.9492797851564	-1018.410339355469	-294.6980590820313	550.8257446289064	-906.9422607421877	-275.4811706542969	430.1228027343751	-1005.626647949219	-345.3290100097657	394.8113403320314	-1046.46533203125	-304.0764160156251	387.4030761718751	-1032.120849609375	-307.2644958496094	305.5747375488282	-998.2856445312502	-378.1761779785157	143.1467742919922	-1035.652099609375	-361.5518188476563	138.6231689453125	-951.7009887695315	-449.824676513672	104.947006225586	-999.9783325195315	-222.3936614990235	56.49513626098634	-972.5853271484377	-228.5090789794922	55.18287658691408	-1015.4248046875	-274.6030578613282	39.16994857788087	-1067.479370117188	-327.6749877929688	824.8962402343752	-651.6329956054689	-283.6837768554688	774.0476684570315	-648.7340698242189	-252.3450927734376	780.069519042969	-654.1790771484376	-305.1999511718751	691.9334716796876	-662.1824951171876	-330.2770080566407	551.0281372070314	-692.0596313476564	-286.5517272949219	543.7185668945314	-802.947204589844	-294.5956726074219	338.2991027832032	-706.1152343750001	-381.7251586914063	276.0782470703126	-709.2559814453126	-337.0980834960938	265.5414733886719	-701.5308837890626	-317.2276000976563	216.4975585937501	-733.1011352539064	-386.5595092773439	123.3716354370117	-716.8723754882814	-350.2127075195313	141.6057281494141	-797.8859863281252	-451.7722473144532	103.4662780761719	-772.4979248046877	-228.6963958740235	55.10720443725587	-776.0684814453127	-233.6183319091797	57.81679916381837	-730.6152343750001	-289.6106567382813	40.45695877075196	-680.9839477539064	nan	nan	nan	nan	nan	nan	nan	nan	nan	nan	nan	nan	
2	0.005	-271.9097595214844	1787.962158203125	-703.0379028320314	-430.0034484863282	1773.893188476563	-827.0362548828127	-403.7779235839845	1769.018676757813	-687.4412841796876	-471.745330810547	1597.546997070313	-783.0633544921877	-468.9527282714845	1288.549072265625	-812.4199218750002	-394.0824279785157	1619.671020507813	-935.7774658203127	-218.8091430664063	1588.27685546875	-1034.615844726563	-199.1815185546876	1619.316284179688	-1000.607299804688	-149.9734191894532	1598.067504882813	-1027.962524414063	-84.44461059570314	1607.486572265625	-1018.889404296875	-80.67967224121095	1535.47119140625	-986.5198974609377	191.7007141113282	1646.214721679688	-993.2702636718752	270.3464355468751	1675.108764648438	-909.2685546875002	-371.4981994628907	1608.597778320313	-630.5949707031251	-199.1188507080079	1551.602294921875	-545.4611206054689	-176.003402709961	1586.52978515625	-573.7143554687501	-130.8376007080078	1551.445922851563	-552.1655273437501	-70.37770080566408	1568.236083984375	-567.2340698242189	-65.12688446044923	1500.479370117188	-607.4055175781251	210.6165466308594	1623.467529296875	-663.3329467773439	214.7169036865235	1612.20654296875	-588.4918212890626	297.2682495117188	1657.835571289063	-658.2178955078126	-291.4590148925782	1115.164916992188	-938.6028442382815	-283.2352600097657	1098.711059570313	-712.1840209960939	-472.2353515625001	1158.971069335938	-815.845153808594	-474.3200988769532	1127.898681640625	-846.1694335937502	-472.0199584960939	1124.676879882813	-786.793884277344	-343.5532226562501	832.876892089844	-1019.861389160156	-306.4169006347657	757.0490112304689	-1024.873779296875	-258.8476867675782	762.4070434570314	-1017.754760742188	-330.1148376464844	702.4957885742189	-1015.689880371094	-326.8033752441407	580.8435058593751	-1018.682922363281	-294.6267395019532	550.7797241210939	-907.1453247070315	-275.4234619140626	429.9639282226564	-1005.786682128906	-345.2154846191407	394.6018371582032	-1046.640869140625	-303.9628295898438	387.2474670410157	-1032.285400390625	-307.2727355957032	305.4241333007813	-998.3509521484377	-378.1487426757813	143.0607604980469	-1035.624755859375	-361.5807189941407	138.5707550048828	-951.7234497070315	-450.0641479492189	105.5133285522461	-999.6329345703127	-222.3857879638672	56.42048263549806	-972.5816040039065	-228.4958801269532	55.18225860595705	-1015.396911621094	-274.5679931640626	39.14327621459962	-1067.457153320313	-327.8934020996094	824.958923339844	-652.0645751953126	-284.1694946289063	773.5271606445315	-649.4044799804689	-252.4150543212891	780.112487792969	-654.5018310546876	-305.3023681640626	691.9290771484376	-662.6037597656251	-330.2888183593751	551.0665893554689	-692.3353271484376	-286.3523254394532	543.7711791992189	-803.3271484375002	-294.5835571289063	338.3153686523438	-706.1987915039064	-381.7588500976563	276.1212463378907	-709.4357910156251	-337.0999450683594	265.5716247558594	-701.6477661132814	-317.2472534179688	216.4859466552735	-733.1281738281251	-386.5289306640626	123.4067535400391	-716.8646240234376	-349.9588623046876	141.9354858398438	-797.7385253906252	-451.7661132812501	103.476188659668	-772.4988403320315	-228.7329864501954	55.12966537475587	-776.1147460937502	-233.6045532226563	57.88166427612306	-730.5724487304689	-289.6283569335938	40.48142623901368	-681.0062255859376	nan	nan	nan	nan	nan	nan	nan	nan	nan	nan	nan	nan	
3	0.01	-271.9344482421876	1787.846069335938	-703.6712646484376	-430.3392028808595	1773.953369140625	-827.3005981445315	-403.7239379882814	1768.912231445313	-688.0999755859376	-471.7954406738282	1597.551635742188	-783.848815917969	-468.9665832519532	1288.503051757813	-813.1504516601565	-393.8963623046876	1619.696655273438	-936.5432128906252	-218.8252716064454	1588.1796875	-1035.280395507813	-198.9602661132813	1619.621337890625	-1001.274108886719	-149.8995361328125	1597.975708007813	-1028.615966796875	-84.29251861572267	1607.387573242188	-1019.496765136719	-80.66548156738283	1535.345336914063	-987.0168457031252	191.7710113525391	1646.048950195313	-993.8021240234377	270.4903869628907	1674.87451171875	-909.7409667968752	-371.6243591308594	1608.485961914063	-631.2517700195314	-199.3869781494141	1551.1669921875	-546.5825805664064	-176.0616912841797	1586.38671875	-574.3060302734376	-131.2293395996094	1550.817504882813	-553.2116699218751	-70.54860687255861	1568.050415039063	-567.6874389648439	-65.54090881347658	1499.926879882813	-608.2462768554689	210.5912780761719	1623.268676757813	-663.7935791015626	214.5075378417969	1612.12451171875	-588.6732177734376	297.1833801269532	1657.599487304688	-658.6895751953126	-291.4374084472657	1115.09228515625	-939.1610107421877	-283.2713012695313	1098.754272460938	-712.8137817382814	-472.2489013671876	1158.9228515625	-816.6403808593752	-474.2038574218751	1128.337036132813	-846.7200927734377	-472.0797424316407	1124.630859375	-787.4312744140627	-343.5061645507813	832.7863769531252	-1020.282836914063	-306.3966979980469	756.9219970703126	-1025.242919921875	-258.7741699218751	762.2559204101564	-1018.187683105469	-330.1478271484376	702.4230957031251	-1016.104736328125	-326.7481994628907	580.7080078125001	-1018.958984375	-294.6384277343751	550.7387695312501	-907.3530273437502	-275.3665161132813	429.8439331054689	-1005.882934570313	-345.0373535156251	394.4509582519532	-1046.789916992188	-303.9076232910157	387.0706176757814	-1032.401733398438	-307.2226257324219	305.3298339843751	-998.3898925781252	-378.1067810058594	143.0058746337891	-1035.574829101563	-361.5936584472657	138.562255859375	-951.6712036132815	-449.8124084472657	104.8983154296875	-999.9172973632815	-222.8805236816407	56.90415573120119	-972.3396606445315	-228.4769592285157	55.18368530273439	-1015.448486328125	-274.6248779296876	39.1435890197754	-1067.50146484375	-328.0030212402344	825.0209960937502	-652.4984130859376	-284.2984313964844	773.6224365234377	-649.7202148437501	-252.4900970458985	780.1300048828127	-654.9002685546876	-305.6472473144532	691.6220092773439	-663.1273193359376	-330.3124084472657	551.1100463867189	-692.6403198242189	-286.3378601074219	543.7297363281251	-803.6024169921877	-294.5859680175782	338.3592529296876	-706.3684082031251	-381.8236999511719	276.2235717773438	-709.6000366210939	-337.1332702636719	265.6600646972657	-701.7636718750001	-317.2197570800782	216.5057830810547	-733.1387329101564	-386.4922180175782	123.4004669189453	-716.8737182617189	-350.0886535644532	141.5514068603516	-797.8611450195315	-451.7722473144532	103.4662780761719	-772.4979248046877	-228.7083129882813	55.17580795288087	-776.130065917969	-233.6159210205079	57.95290756225587	-730.6066284179689	-289.6194458007813	40.51393127441407	-681.0272216796876	nan	nan	nan	nan	nan	nan	nan	nan	nan	nan	nan	nan	
4	0.015	-271.9103088378907	1787.673828125	-704.2373046875001	-430.1912841796876	1773.905151367188	-827.9487915039065	-403.7867126464845	1768.92138671875	-688.6621704101564	-471.7463684082032	1597.522094726563	-784.6360473632815	-468.8506164550782	1288.469360351563	-813.851257324219	-393.9407043457032	1619.656982421875	-937.231628417969	-218.6439056396485	1588.087524414063	-1036.03857421875	-198.7975463867188	1619.526977539063	-1001.981872558594	-149.7947692871094	1597.877197265625	-1029.267578125	-84.14775848388673	1607.305053710938	-1020.069885253906	-80.62685394287111	1535.250122070313	-987.6130981445315	191.8843688964844	1645.852172851563	-994.2564086914065	270.5582580566407	1674.624145507813	-910.2308349609377	-371.6780090332032	1608.386596679688	-632.0073242187501	-199.5129394531251	1551.07373046875	-547.3389282226564	-176.2056732177735	1586.23583984375	-574.8519897460939	-131.3352355957032	1550.398803710938	-553.8021850585939	-70.58780670166017	1567.99609375	-568.5636596679689	-65.57830047607423	1499.798828125	-608.7675170898439	210.3730468750001	1622.3388671875	-664.1814575195314	214.3658294677735	1611.7939453125	-589.3419799804689	297.1337585449219	1657.325927734375	-659.2765502929689	-291.3767089843751	1114.9970703125	-939.7794189453127	-283.2610778808594	1098.7919921875	-713.4964599609376	-472.2554626464845	1158.870361328125	-817.239929199219	-474.1932067871095	1127.789916992188	-847.651794433594	-472.1990356445314	1124.6201171875	-788.265319824219	-343.4429931640626	832.6651611328127	-1020.726257324219	-306.3655090332032	756.8065795898439	-1025.602905273438	-258.7445373535157	762.1638183593751	-1018.601806640625	-330.1405029296876	702.3262939453126	-1016.487060546875	-326.7327270507813	580.5737304687501	-1019.27734375	-294.6098022460938	550.7282714843751	-907.5864868164065	-275.2842407226563	429.6701049804689	-1006.090148925781	-344.9838256835938	394.2610473632814	-1046.899780273438	-303.8055419921876	386.912811279297	-1032.470458984375	-307.2017211914063	305.2138671875001	-998.4190673828127	-378.0926208496094	142.8984680175782	-1035.554077148438	-361.6597900390626	138.4885559082032	-951.6375732421877	-449.7769775390626	104.8684234619141	-999.899353027344	-222.3807983398438	56.40216445922853	-972.6107177734377	-228.4769592285157	55.18368530273439	-1015.448486328125	-274.5662841796876	39.14257431030274	-1067.477905273438	-328.1434631347657	825.0315551757815	-653.0283813476564	-284.4340820312501	773.6685791015627	-650.0744628906251	-252.5360717773438	780.1721801757815	-655.3257446289064	-305.6915588378907	691.6702270507814	-663.5595703125001	-330.3403625488282	551.1624145507814	-692.9420166015626	-286.2046203613282	543.7208251953126	-803.8826904296877	-294.6447753906251	338.4298400878907	-706.4511718750001	-381.8485412597657	276.2574157714844	-709.7625122070314	-337.1578063964844	265.6878967285157	-701.8676147460939	-317.2113647460938	216.5589599609376	-733.1435546875001	-386.4858398437501	123.4105453491211	-716.8248901367189	-350.0828552246094	141.5469360351563	-797.854919433594	-451.7771606445314	103.4535369873047	-772.5007324218752	-228.6738891601563	55.24292373657228	-776.0955200195315	-233.6390533447266	58.00955963134767	-730.5255737304689	-289.6143188476563	40.48748397827149	-681.0689086914064	nan	nan	nan	nan	nan	nan	nan	nan	nan	nan	nan	nan	
